<svg width="24" height="27.5" viewBox="0 0 24 27.5" fill="none" xmlns="http://www.w3.org/2000/svg">
<path d="M22.4,8.42H15.58V1.6H18V0H15.05A1.08,1.08,0,0,0,14,1.08V9A1.08,1.08,0,0,0,15.05,10h7.87A1.08,1.08,0,0,0,24,9V6H22.4Z" style="fill:#909a95"/><path d="M24,.35A.35.35,0,0,0,23.65,0h-4V1.6h1.62L17.67,5.25l1.08,1.08L22.4,2.69V4.31H24Z" style="fill:#909a95"/><path d="M16.19,14.18l-5.71-5a2.85,2.85,0,0,0-3.81,0L1,14.18a3,3,0,0,0-.71,1A3,3,0,0,0,0,16.33v8.32a2.82,2.82,0,0,0,.84,2,2.83,2.83,0,0,0,2,.84H14.29a2.87,2.87,0,0,0,2.86-2.85V16.32a2.87,2.87,0,0,0-1-2.14ZM10.48,25.6H6.67V20.84a1,1,0,0,1,1-.95H9.53a1,1,0,0,1,1,.95Zm4.76-1a1,1,0,0,1-1,1H12.38V20.84A2.83,2.83,0,0,0,9.53,18H7.62a2.88,2.88,0,0,0-2,.83,2.85,2.85,0,0,0-.84,2V25.6H2.86a1,1,0,0,1-.68-.28,1,1,0,0,1-.27-.67V16.32A.88.88,0,0,1,2,15.93a1.08,1.08,0,0,1,.24-.32l5.71-5a1,1,0,0,1,.63-.23,1,1,0,0,1,.63.23l5.72,5a1.08,1.08,0,0,1,.24.32,1,1,0,0,1,.08.39Z" style="fill:#909a95"/>
</svg>
