<svg width="24" height="24" viewBox="0 0 24 24" fill="none" xmlns="http://www.w3.org/2000/svg">
<path fill-rule="evenodd" clip-rule="evenodd" d="M15.447 3.97858C14.1807 3.80419 12.884 4.05455 11.7653 4.70001C10.4353 5.46776 9.46495 6.73262 9.06769 8.21529L8.00108 12.1973L4.24557 15.4969C4.04513 15.6735 3.9583 15.9456 4.01908 16.2054C4.07986 16.4651 4.27885 16.6706 4.53646 16.7401L10.0938 18.2293C10.0077 18.5043 9.96061 18.7966 9.96061 19.1005C9.96061 20.7004 11.2595 22 12.8594 22C14.2444 22 15.4029 21.0275 15.6909 19.7286L19.9131 20.8603C20.1707 20.9291 20.4457 20.8509 20.6287 20.6563C20.8111 20.4616 20.8712 20.1823 20.7858 19.929L19.1837 15.1938L20.2517 11.2103C20.649 9.72762 20.4406 8.14799 19.6736 6.81873C19.0274 5.70003 18.0288 4.83533 16.845 4.35268L17.2314 2.91126C17.3349 2.52557 17.1055 2.12831 16.7198 2.02483C16.3341 1.92136 15.9369 2.15074 15.8334 2.53642L15.447 3.97858ZM11.4947 18.6041C11.4382 18.759 11.4078 18.9261 11.4078 19.1005C11.4078 19.9015 12.0583 20.5528 12.8594 20.5528C13.575 20.5528 14.1698 20.034 14.29 19.353L11.4947 18.6041ZM15.7835 5.51985H15.7842C16.8964 5.81798 17.8443 6.5452 18.4203 7.54233C18.9956 8.53946 19.1511 9.72401 18.8537 10.8362C18.2777 12.986 17.7293 15.0309 17.7293 15.0309C17.6924 15.1692 17.6974 15.3146 17.743 15.4499L18.9818 19.1121L6.21667 15.6916L9.12051 13.1394C9.22832 13.0454 9.30503 12.9216 9.34193 12.7834C9.34193 12.7834 9.8897 10.7392 10.4657 8.59013C10.7638 7.47794 11.4918 6.52928 12.4889 5.95329C13.486 5.37803 14.6706 5.22173 15.7835 5.51985Z" fill="#909A95"/>
</svg>
