<svg width="24" height="27.5" viewBox="0 0 24 27.5" fill="none" xmlns="http://www.w3.org/2000/svg">
<path d="M22.4,8.42H15.58V1.6H18V0H15.05A1.08,1.08,0,0,0,14,1.08V9A1.08,1.08,0,0,0,15.05,10h7.87A1.08,1.08,0,0,0,24,9V6H22.4Z" style="fill:#909a95"/><path d="M24,.35A.35.35,0,0,0,23.65,0h-4V1.6h1.62L17.67,5.25l1.08,1.08L22.4,2.69V4.31H24Z" style="fill:#909a95"/><path d="M5.15,7.42a.75.75,0,1,0-1.44.39L4.1,9.3a5.86,5.86,0,0,0-2.91,2.54,6,6,0,0,0-.6,4.53l1.1,4.11L0,25.36a.74.74,0,0,0,.9,1L5.3,25.16a3,3,0,1,0,5.77-1.55l5.73-1.54a.75.75,0,0,0,.54-.55.74.74,0,0,0-.24-.73l-3.87-3.4-1.1-4.11A6,6,0,0,0,5.55,8.91ZM6.74,24.77a1.5,1.5,0,0,0,3-.26A1.44,1.44,0,0,0,9.62,24ZM8.6,11a4.47,4.47,0,0,1,2.09,2.72L11.84,18a.8.8,0,0,0,.23.37l3,2.63L1.9,24.52l1.28-3.78a.7.7,0,0,0,0-.43S2.63,18.2,2,16A4.48,4.48,0,0,1,5.2,10.5h0A4.44,4.44,0,0,1,8.6,11Z" style="fill:#909a95;fill-rule:evenodd"/>
</svg>
